<?xml version="1.0" standalone="yes"?>
<svg xmlns="http://www.w3.org/2000/svg" width="1200" height="1235">
<path style="fill:#fefefe; stroke:none;" d="M0 0L0 1235L1200 1235L1200 0L0 0z"/>
<path style="fill:#9fa4bd; stroke:none;" d="M171.004 164.653C161.605 167.641 164 179.294 164 187L164 252L164 473L164 530C164 537.006 162.242 546.853 166.97 552.721C171.497 558.34 183.595 556 190 556L256 556L456 556L517 556C525.526 556 536.829 557.94 544.996 555.347C555.039 552.159 554 541.397 554 533L554 469L554 248L554 191C554 184.251 556.702 175.053 552.272 169.213C546.889 162.116 535.733 164 528 164L462 164L260 164C236.412 164 212.505 162.931 189 164.675C183.048 165.117 176.915 162.773 171.004 164.653M660.004 164.468C649.888 166.457 651 176.904 651 185L651 251L651 472L651 529C651 535.837 649.288 545.966 653.728 551.786C658.727 558.34 670.806 556 678 556L744 556L942 556L1003 556C1012.73 556 1024.57 557.814 1034 555.235C1043.73 552.572 1042 542.036 1042 534L1042 470L1042 245L1042 189C1042 183.003 1044.03 172.277 1039.49 167.569C1033.85 161.732 1021.3 164 1014 164L946 164L753 164C730.01 164 706.938 163.489 684 164.625C676.053 165.018 667.979 162.901 660.004 164.468z"/>
<path style="fill:#478cc3; stroke:none;" d="M171 168L168 173L169 173L171 168z"/>
<path style="fill:#555a7e; stroke:none;" d="M215 416C217.014 410.448 221.121 400.288 228.004 399.451C234.449 398.668 244.446 408.396 249.17 412.225C265.113 425.145 283.003 435.346 299 448.26C306.017 453.925 318.353 458.889 321.196 468C322.751 472.984 320.808 477.943 321.093 483C321.862 496.606 322.565 511.325 321.961 525C321.672 531.544 318.11 539.761 321.941 545.895C325.744 551.982 333.037 550.273 339 550.039C355.061 549.407 375.596 553.971 390.985 550.093C402.025 547.31 397.392 536.032 397.039 528C396.63 518.673 397.741 509.285 397.406 500C397.053 490.232 394.778 477.344 398.264 468.004C400.708 461.455 408.743 458.068 414 454.011C428.142 443.098 442.49 432.488 456.91 421.972C464.977 416.09 485.777 393.726 495.907 401.573C514.324 415.84 486.78 429.34 476 436.957C463.561 445.746 451.321 454.743 439 463.711C433.143 467.975 426.011 471.122 422.724 478C416.828 490.337 421.177 511.72 421.907 525C422.247 531.188 417.97 537.913 420.099 543.981C423.473 553.595 440.324 550 448 550L519 550C525.834 550 539.088 553.166 544.786 549.142C551.565 544.355 547.619 535.661 548.174 529C549.93 507.905 548.993 486.217 549 465C549.024 391.202 551.27 316.776 548.039 243C547.324 226.662 547.684 209.325 548.053 192.999C548.193 186.82 551.558 176.688 547.258 171.303C542.44 165.27 531.402 168.92 525 168.996C504.075 169.245 482.987 168 462 168L252 168C233.81 168 215.083 169.724 197 168.961C189.983 168.665 178.594 165.377 172.109 169.028C164.189 173.486 168 197.112 168 205L168 313L168 488L168 532C168 537.068 166.724 544.624 170.514 548.682C176.16 554.728 193.612 550.196 201 550.015C222.032 549.499 243.052 550 264 550C273.17 550 285.203 552.038 293.985 549.196C304.909 545.66 299 518.475 299 509C299 501.312 302.498 486.788 298.972 480.039C293.814 470.165 279.008 462.133 270.039 456.06C251.74 443.669 234.55 426.139 215 416z"/>
<path style="fill:#478cc3; stroke:none;" d="M192 168L192 169L206 169L192 168M208.667 168.333L209.333 168.667L208.667 168.333M274 168L274 169L286 169L274 168M288.667 168.333L289.333 168.667L288.667 168.333M508.667 168.333L509.333 168.667L508.667 168.333M512 168L512 169L532 169L512 168M542.667 168.333L543.333 168.667L542.667 168.333M659 170L662 169L659 170z"/>
<path style="fill:#555a7e; stroke:none;" d="M662.005 168.653C654.051 171.194 656 180.395 656 187L656 240L656 469L656 530C656 537.115 654.019 547.977 663.004 550.347C671.438 552.572 682.273 550 691 550L757 550C764.473 550 782.698 553.381 786.512 544.945C789.436 538.479 787 526.113 787 519C787 507.563 789.588 489.647 785.143 479.039C782.374 472.432 774.321 468.734 769 464.547C753.173 452.094 735.84 441.97 720 429.49C713.156 424.098 694.152 406.087 714.001 401.453C719.201 400.239 725.204 405.165 729 408.17C739.053 416.129 750.885 421.713 760.714 429.961C769.399 437.248 779.477 444.867 789 451.035C796.961 456.191 805.438 459.627 809.482 469C811.849 474.488 809.882 479.353 810.103 485C810.648 498.895 810.067 513.032 809.999 527C809.97 533.083 806.594 542.601 811.573 547.486C814.744 550.598 819.938 549.998 824 550C834.346 550.004 844.658 551.619 855 550.911C862.278 550.412 873.2 552.098 879.906 549.258C887.813 545.911 884.171 535.391 884.015 529C883.57 510.841 882.179 491.043 884.108 473C885.236 462.454 897.16 456.821 904.985 451.676C922.137 440.399 938.65 427.149 955 414.749C960.58 410.518 971.586 400.484 979 401.192C987.606 402.014 992.247 415.685 985.732 421.381C969.492 435.582 950.594 446.907 933 459.279C925.368 464.646 913.87 470.56 909.318 479.039C904.316 488.357 908 507.529 908 518C908 524.99 904.686 539.883 908.179 545.786C912.555 553.182 929.743 550 937 550L1002 550C1010.37 550 1020.93 552.465 1029 550.606C1039.7 548.138 1037.65 537.158 1037.09 529C1035.64 507.871 1037 486.182 1037 465L1037 252C1037 235.839 1035.74 219.098 1037.17 203.001C1037.85 195.238 1040.08 179.035 1035.97 172.225C1031.67 165.093 1020.44 169.03 1014 168.871C992.035 168.329 970.03 168 948 168L750 168L690 168C681.486 168 670.156 166.048 662.005 168.653z"/>
<path style="fill:#478cc3; stroke:none;" d="M1010 168L1010 169L1019 169L1010 168M1030.67 168.333L1031.33 168.667L1030.67 168.333M1033 169L1034 170L1033 169z"/>
<path style="fill:#212e64; stroke:none;" d="M538 170.729C446.901 167.993 355.165 171 264 171L196 171C190.564 171 176.682 168.525 172.603 172.603C168.748 176.459 171 188.899 171 194L171 254L171 471L171 526C170.998 531.697 168.184 540.936 172.564 545.562C177.098 550.351 195.495 546.032 202 546.001C222.36 545.903 242.733 546.245 263 546.004C272.273 545.894 282.899 547.699 291.981 545.786C297.507 544.621 297.651 539.723 296.739 535.039C294.276 522.393 295.85 507.894 296.004 495C296.056 490.613 297.963 485.235 296.396 481.015C293.437 473.047 283.196 469.469 277 464.714C258.139 450.241 238.084 437.471 219.015 423.363C209.382 416.235 213.576 399.898 224.924 396.203C233.5 393.411 245.672 406.711 252 411.255C270.991 424.892 292.343 437.026 309.576 452.866C318.291 460.877 325.368 462.499 325.961 476C326.698 492.813 327.528 511.234 325.895 528C325.339 533.703 320.586 543.017 329.094 545.566C336.365 547.745 346.434 546 354 546C362.252 546 370.743 545.433 378.961 546.235C383.537 546.682 389.524 548.129 393.486 544.911C398.559 540.789 394.851 529.992 394.849 524.424C394.843 511.683 395.782 498.72 394.91 486C394.413 478.733 392.617 469.883 396.178 463.015C399.834 455.965 410.519 451.929 416.985 447.911C429.428 440.177 440.691 429.769 453 421.572C462.345 415.348 471.089 408.309 480 401.497C483.126 399.107 487.216 394.109 491.665 395.046C502.207 397.265 510.576 412.418 502.671 420.867C486.045 438.637 459.988 449.248 441.335 465.119C435.887 469.754 428.19 472.19 424.863 479.015C422.714 483.423 423.998 489.245 424 494C424.004 505.633 424.47 517.378 423.961 529C423.748 533.865 421.003 541.488 425.434 545.258C430.642 549.689 446.342 546 453 546L517 546C523.401 546 535.351 549.166 540.956 547.214C548.506 544.586 545.291 534.741 545.039 529C544.269 511.404 545 493.614 545 476L545 250L545 190C545.003 182.779 548.831 171.054 538 170.729z"/>
<path style="fill:#478cc3; stroke:none;" d="M1035 170L1036 171L1035 170M656 171L657 172L656 171z"/>
<path style="fill:#212e64; stroke:none;" d="M663.189 171.742C656.734 174.604 659.875 183.664 660.007 188.996C660.444 206.635 660 224.349 660 242L660 467C660 486.995 660.234 507.006 659.996 527C659.916 533.743 656.116 545.308 666.004 546.852C674.07 548.111 683.734 546 692 546L755 546C761.35 546 779.162 549.769 782.972 543.721C786.311 538.422 783.672 522.78 783.745 516.286C783.829 508.848 782.728 501.387 783.039 494C783.232 489.425 785.073 484.382 782.822 480.039C778.439 471.584 765.701 465.012 758 460.039C745.655 452.066 733.932 442.622 721.961 434.086C716.165 429.953 706.958 425.938 702.318 420.775C696.018 413.767 706.683 397.285 715 396.743C724.346 396.134 731.82 407.206 739 411.757C756.64 422.94 772.208 438.034 790 448.648C798.855 453.931 812.695 460.12 814.062 472C816.14 490.046 812.764 510.555 813.471 529C813.684 534.551 808.865 542.989 816.059 546.141C822.214 548.838 833.17 545.74 840 546.039C849.011 546.434 857.982 545.472 867 546.089C871.375 546.389 876.823 548.207 880.682 545.142C885.658 541.189 881.004 531.302 881.002 526C880.996 512.044 881.984 497.987 881.922 484C881.897 478.26 879.696 472.496 882.457 467.001C886.799 458.359 897.34 453.898 904.911 448.714C918.244 439.584 930.36 428.998 944 420.211C952.891 414.484 968.958 395.136 980 396.495C988.622 397.555 998.659 414.149 991.682 421.319C986.793 426.344 978.829 429.829 973.089 433.947C958.492 444.421 942.966 454.505 929 465.855C923.901 469.999 915.551 473.45 912.179 479.29C909.881 483.271 911.206 489.038 911.139 493.424C910.957 505.282 911.137 517.142 910.996 529C910.942 533.593 908.021 541.435 912.318 544.772C918.577 549.632 933.472 547 941 547C961.376 547 981.597 546 1002 546C1009.86 546 1021.62 548.788 1028.96 546.347C1037.18 543.612 1033.17 532.285 1033.01 526C1032.49 504.694 1033 483.313 1033 462L1033 252L1033 195C1033 189.525 1035.66 178.92 1032.82 174.228C1029.41 168.592 1016.6 171 1011 171L948 171L746 171L688 171C680.959 171 669.691 168.859 663.189 171.742z"/>
<path style="fill:#478cc3; stroke:none;" d="M1036 171L1037 172L1036 171M548 172L549 173L548 172M655 174L655 184L656 184L655 174M1037 174L1037 189L1038 189L1037 174M168 182L169 183L168 182M548 188L548 199L549 199L548 188M1037 196L1038 197L1037 196M548 200L549 201L548 200M1037 200L1037 360L1038 360L1038 248C1038 234.485 1042.21 212.407 1037 200M655 208L655 336L656 336L656 247C656 235.842 659.308 218.265 655 208M548 224L548 248L549 248L548 224z"/>
<path style="fill:#555a7e; stroke:none;" d="M356 277.425C330.229 280.892 309.076 290.835 294.074 313.286C257.864 367.475 311.529 437.879 372 429.71C382.219 428.329 391.973 423.358 400 417.428C413.853 407.195 428.981 393.805 433.401 375.996C445.167 328.589 409.438 270.237 356 277.425M838 278.514C824.747 281.167 813.747 283.34 803 292.198C793.443 300.076 782.815 310.526 777.651 322C751.527 380.048 806.132 441.516 866 428.546C874.377 426.731 882.964 422.046 890 417.293C942.803 381.623 929.693 296.489 867 280.747C857.635 278.395 847.682 276.576 838 278.514z"/>
<path style="fill:#478cc3; stroke:none;" d="M352 281.424C335.661 283.571 323.234 288.12 310.167 298.786C281.92 321.84 279.665 373.242 302.613 400.714C318.82 420.117 345.394 428.736 370 425.714C380.468 424.428 389.244 422.164 398.039 416.424C443.435 386.795 444.843 307.851 390 285.613C378.783 281.065 363.926 279.858 352 281.424M844 281.425C814.625 285.14 791.01 297.856 778.951 327C757.982 377.679 803.398 432.942 856 426.714C884.681 423.319 911.75 402.187 918.32 373C928.482 327.861 893.795 275.127 844 281.425z"/>
<path style="fill:#555a7e; stroke:none;" d="M364 302.479C351.694 303.195 339.974 305.983 330.004 313.478C287.61 345.35 319.019 407.951 368 403.942C375.936 403.293 385.26 396.261 391 391.165C417.517 367.625 414.724 321.942 379 307.938C374.134 306.031 369.399 302.165 364 302.479M848 302.724C812.58 304.007 785.274 344.367 802.442 377C807.173 385.993 816.491 392.849 824.985 397.872C833.165 402.709 839.119 405.394 849 404.961C902.369 402.62 914.683 326.093 865 307.228C859.469 305.128 854.049 302.505 848 302.724z"/>
<path style="fill:#212e64; stroke:none;" d="M361 306.728C354.399 306.722 343.847 307.992 338 311.05C292.796 334.696 314.07 402.05 363 400.741C413.169 399.399 422.224 320.631 373 309.636C368.935 308.728 365.257 306.732 361 306.728M843 307.464C825.754 310.483 808.183 319.931 802.799 338C793.965 367.651 817.296 408.204 852 401.427C868.831 398.141 885.692 388.428 891.402 371C901.464 340.288 878.016 301.333 843 307.464z"/>
<path style="fill:#478cc3; stroke:none;" d="M548 328L548 361L549 361L548 328M655 351L655 544L656 544L656 408L656 369L655 351M1037 368L1037 533L1038 533L1038 417C1038 403.224 1042.31 380.645 1037 368M215 416C232.56 429.368 250.489 442.185 268.17 455.406C277.974 462.737 291.507 469.57 298.397 480.039C301.311 484.468 299.134 490.119 299.015 495C298.712 507.338 297.757 520.754 299.289 533C299.964 538.397 301.346 544.424 295.891 547.911C285.574 554.505 261.984 550 250 550L250 551L294 550.826L310 546.653L328 551C318.334 542.235 321.857 535.693 321.996 524C322.162 510.029 321.472 495.899 321.129 482C321.003 476.89 322.793 472.088 321.196 467C318.688 459.014 309.124 455.559 303 450.714C286.471 437.638 268.842 426.33 252.015 413.718C245.93 409.158 236.949 399.54 229.001 399.192C220.968 398.84 216.68 409.728 215 416M385 551L385 552L407 545.886L432 551C429.18 549.642 425.714 549.468 423.218 547.436C416.285 541.794 422.537 530.452 421.83 523C420.677 510.833 417.332 490.294 422.724 479C426.215 471.685 433.773 468.244 440 463.711C452.917 454.309 466.386 445.239 479 435.486C489.025 427.735 511.772 418.094 498.471 403.189C487.356 390.734 465.255 415.361 455.961 421.972C442.432 431.595 429.294 441.783 416 451.731C410.762 455.65 401.513 460.002 398.653 466.04C395.868 471.918 397 479.691 397 486C397 499.334 396.936 512.665 397.001 526C397.061 538.54 401.226 548.813 385 551M674 550L674 551L776 551.821L796 547.274L839 551C830.565 547.461 814.44 554.908 809.858 543.982C807.779 539.023 809.992 532.252 810 527C810.022 513.044 810.898 498.841 810.209 485C809.974 480.281 811.683 475.727 810.529 471C807.755 459.638 797.483 456.328 789 450.367C775.498 440.878 763.183 429.749 749 421.265C740.245 416.029 722.014 396.27 711.055 402.179C692.082 412.41 720.171 430.746 728 436.406C741.612 446.246 755.637 455.127 769 465.324C774.48 469.506 782.368 473.252 785.143 480.015C789.313 490.18 787 507.065 787 518C787 524.935 789.935 540.519 785.338 546.036C779.533 553.004 764.097 550 756 550L674 550M872 550L872 551L900 547.333L915 551.505L1020 551C1013.08 548.097 1002.48 550 995 550L938 550C930.131 550 914.06 553.09 908.743 545.786C904.78 540.343 908 524.792 908 518C908 507.447 904.84 490.81 908.858 481.004C911.611 474.285 920.312 468.938 926 464.86C939.727 455.018 954.4 446.459 967.576 435.884C973.496 431.133 984.874 425.663 988.338 418.895C991.211 413.283 987.277 402.911 980.985 401.319C972.64 399.207 962.265 408.802 956 413.298C938.866 425.595 922.29 438.931 904.985 451.015C897.57 456.194 885.939 460.934 884.225 471C881.182 488.862 883.913 509.853 884.001 528C884.054 539.062 886.966 549.865 872 550M548 410L548 443L549 443L548 410M548.333 474.667L548.667 475.333L548.333 474.667M548 480L548 484L549 484L548 480M548 488L548 502L549 502L548 488M548 526L548 536L549 536L548 526M1037.33 542.667L1037.67 543.333L1037.33 542.667M548 544L549 545L548 544M168 545L169 546L168 545M656 545L657 546L656 545M1036 545L1037 546L1036 545M547 546L548 547L547 546M657 547L658 548L657 547M1035 547L1036 548L1035 547M546 548L547 549L546 548M658 548L659 549L658 548M1034 548L1035 549L1034 548M170 549L171 550L170 549M659 549L660 550L659 549M1032 549L1033 550L1032 549M171 550L172 551L171 550M182.667 550.333L183.333 550.667L182.667 550.333M195 550L195 551L240 551C228.299 546.09 207.742 550 195 550M329 550L329 551L332 551L329 550M334 550L334 551L385 551C371.873 545.492 348.311 550 334 550M434 550L434 551L536 551L505 550L434 550M542.667 550.333L543.333 550.667L542.667 550.333M661.667 550.333L662.333 550.667L661.667 550.333M665.667 550.333L666.333 550.667L665.667 550.333M858 550L858 551L871 551L858 550M1030 550L1031 551L1030 550M174 551L174 552L178 552L174 551M669 551L669 552L673 552L669 551M841 551L841 552L851 552L841 551M1021 551L1021 552L1028 552L1021 551z"/>
<path style="fill:#9fa4bd; stroke:none;" d="M172.004 653.573C162.704 656.278 164 667.422 164 675L164 741L164 961L164 1019C164 1025.57 161.98 1036.24 165.894 1041.89C170.875 1049.09 182.476 1047 190 1047C211.719 1047 233.29 1045.75 255 1046C321.569 1046.8 388.169 1047 455 1047C469.471 1047 484.671 1045.11 499 1046.09C509.55 1046.81 519.488 1046.26 530 1046.05C534.681 1045.96 539.377 1047.78 544 1046.35C555.783 1042.69 553.953 1031.84 554.001 1022C554.1 1001.41 554 980.717 554 960L554 738L554 682C554.003 674.246 556.966 665.647 551.606 659.04C545.158 651.093 535.142 653 526 653L461 653L262 653L201 653C192.093 653 180.59 651.075 172.004 653.573M659.015 653.703C648.641 657.307 651.129 669.626 651.826 678C653.52 698.335 651 720.437 651 741L651 959C651 979.685 650.598 1000.39 651.91 1021C652.324 1027.5 649.083 1034.98 652.858 1040.96C658.438 1049.79 667.736 1045.6 676 1046.18C697.894 1047.73 720.024 1047 742 1047L948 1047C970.596 1047 993.502 1048.05 1016 1046.17C1022.45 1045.64 1028.68 1048.31 1035 1045.71C1044.11 1041.96 1042 1031.04 1042 1023L1042 959L1042 736C1042 717.337 1041.8 698.662 1042 680C1042.09 672.342 1044.89 663.804 1039.35 657.225C1033.99 650.853 1022.37 653 1015 653L949 653L747 653L687 653C678.608 653 666.988 650.933 659.015 653.703z"/>
<path style="fill:#478cc3; stroke:none;" d="M173.667 658.333L174.333 658.667L173.667 658.333z"/>
<path style="fill:#555a7e; stroke:none;" d="M400 1037C395.326 1018.03 397.112 997.381 397.961 978C398.255 971.27 396.163 962.036 400.009 956.093C408.372 943.173 429.943 933.339 442 923.752C453.27 914.792 465.509 905.394 478 898.215C481.38 896.273 484.988 891.858 489 891.542C493.566 891.183 499.104 896.403 501.242 900.004C505.069 906.448 496.717 912.715 492.001 915.896C478.542 924.975 463.89 934.818 451.09 944.885C443.368 950.957 429.541 957.016 424.228 965.21C417.087 976.224 421 1000.31 421 1013C421 1019.36 417.219 1034.67 422.573 1039.14C426.973 1042.81 436.654 1041 442 1041L491 1041C504.654 1041 518.351 1040.68 532 1041.01C537.416 1041.15 543.492 1043.16 547.258 1037.87C550.899 1032.75 547.771 1025.7 548.093 1020C549.129 1001.69 547.233 983.406 548.039 965C551.214 892.491 548 818.801 548 746L548 684C548.011 677.287 551.498 667.091 546.347 661.558C541.204 656.033 530.689 659 524 659L463 659L248 659L192 659C185.977 658.998 176.662 656.037 171.499 660.089C166.257 664.204 168 674.207 168 680L168 734L168 958L168 1020C168 1026.32 165.627 1038.27 173.044 1041.26C177.069 1042.88 181.819 1041.03 186 1041.15C198.29 1041.48 210.687 1041 223 1041L278 1041C283.885 1041 293.925 1042.87 298.552 1038.35C302.998 1034 298.826 1016.31 299.104 1010C299.585 999.08 302.614 981.14 298.518 971C294.754 961.682 284.91 956.726 277 951.41C263.655 942.441 250.022 933.445 237.285 923.641C228.736 917.061 208.231 905.911 222.174 894.569C223.834 893.218 225.866 892.15 228 891.817C233.413 890.972 237.971 895.774 242 898.628C250.624 904.738 259.464 910.372 268 916.714C280.985 926.362 294.556 935.161 307 945.385C311.608 949.171 317.766 952.516 320.543 958.004C323.65 964.143 321.081 971.518 321.004 978C320.833 992.329 322.191 1006.61 321.996 1021C321.938 1025.29 318.129 1031.75 319.647 1035.62C322.089 1041.85 333.769 1041 339 1041C356.474 1041 384.77 1046.38 400 1037z"/>
<path style="fill:#478cc3; stroke:none;" d="M182 658L182 659L536 659L504 658L432 658L182 658M537 658L538 659L537 658M541.667 658.333L542.333 658.667L541.667 658.333M662 658L662 659L1030 659L997 658L922 658L662 658M171 659L172 660L171 659M660 659L661 660L660 659z"/>
<path style="fill:#555a7e; stroke:none;" d="M661.094 659.742C653.75 662.811 655.99 671.82 656 678L656 732L656 960L656 1022C656 1029.53 653.954 1040.25 664.001 1041.63C672.363 1042.78 682.431 1041 691 1041L757 1041C764.161 1041 782.87 1044.29 787.527 1037.43C790.947 1032.39 785.588 1022 786.286 1016C787.435 1006.12 786.402 995.934 786.255 986C786.172 980.369 787.917 975.439 785.431 970C781.176 960.688 770.044 955.452 762 949.821C745.2 938.06 727.958 926.278 712.015 913.331C705.015 907.646 702.265 892.387 715.001 891.192C721.908 890.544 727.477 898.055 733 901.139C753.102 912.364 771.118 928.711 790 941.964C796.28 946.371 809.205 952.589 809.941 961.001C811.634 980.34 810.031 1000.58 810 1020C809.99 1026.19 805.695 1037.03 813.02 1040.14C820.274 1043.23 832.195 1041 840 1041C850.486 1041 874.233 1045.73 882.772 1039.26C889.05 1034.5 884.787 1023.49 884.17 1017C882.896 1003.62 884 989.479 884 976C884 971.063 882.455 963.269 884.488 958.715C887.677 951.571 897.747 946.914 904 942.896C916.439 934.902 927.734 924.806 939.714 916.154C948.671 909.685 958.229 903.952 967 897.323C970.607 894.598 974.93 889.638 979.985 890.539C992.079 892.693 990.33 907.639 982.985 913.402C965.88 926.822 947.415 938.371 930 951.374C922.378 957.066 912.306 962.775 908.499 972C904.56 981.546 908 996.692 908 1007C908 1013.65 903.774 1033.8 908.318 1038.06C913.342 1042.76 922.695 1041 929 1041L982 1041C994.048 1041 1006.05 1041.18 1018 1041.18C1022.44 1041.18 1026.57 1042.62 1030.98 1041.2C1040.29 1038.19 1037 1027.37 1037 1020L1037 956L1037 743L1037 686C1037 679.544 1039.91 669.679 1036.26 664.019C1031.52 656.68 1020.51 659 1013 659L949 659L745 659L687 659C679.538 659 668.04 656.84 661.094 659.742z"/>
<path style="fill:#478cc3; stroke:none;" d="M1032 659L1033 660L1032 659M545 660L546 661L545 660M658 660L659 661L658 660M1033 660L1034 661L1033 660M1034 661L1035 662L1034 661M169 662L170 663L169 662z"/>
<path style="fill:#212e64; stroke:none;" d="M176.044 662.573C169.061 664.697 171 674.352 171 680L171 733L171 958C171 978.349 171.098 998.739 171.001 1019C170.974 1024.57 168.574 1036.88 176.019 1038.48C190.994 1041.69 211.477 1038 227 1038L274 1038C279.713 1038 288.604 1039.66 293.852 1037.14C298.313 1035 296.352 1029.83 296.09 1026C295.456 1016.74 296 1007.28 296 998C296 989.655 298.652 978.614 294.941 971C290.497 961.88 279.882 957.155 272 951.52C254.3 938.865 229.313 926.553 215.148 909.996C209.09 902.915 215.704 894.078 222.171 889.575C231.946 882.767 241.424 895.142 249.004 899.475C264.781 908.492 279.533 921.564 294 932.61C302.985 939.471 314.007 944.465 321.701 953.089C327.928 960.07 325.063 966.695 325.005 975C324.907 988.82 325.423 1003.17 325.961 1017C326.139 1021.57 322.247 1032.8 325.604 1035.99C328.41 1038.66 333.474 1038 337 1038L366 1038C373.889 1038 383.228 1039.37 390.945 1037.66C398.883 1035.9 394.116 1024.68 394.718 1019C396.843 998.964 391.372 977.981 395.275 958C397.067 948.826 408.852 943.539 416 938.95C433.534 927.693 450.421 914.787 467 902.197C472.302 898.17 483.431 886.669 490 886.507C498.88 886.288 510.815 901.68 504.221 909.385C499.982 914.338 494.225 916.898 489.17 920.752C475.148 931.442 460.86 941.903 446.715 952.456C440.281 957.255 429.198 962 425.179 969.174C422.787 973.444 424 980.272 424 985C424 997.008 424.057 1008.99 423.999 1021C423.977 1025.56 421.144 1033.66 425.303 1036.97C430.905 1041.42 446.999 1038 454 1038L516 1038C523.46 1038 533.9 1040.5 540.981 1038.68C549.027 1036.61 545.002 1023.96 545 1018L545 955L545 740L545 685C545.002 679.222 548.13 669.301 544.142 664.434C540.511 660.002 527.334 662.009 522 662C500.278 661.965 478.669 662.105 457 662.001C390.732 661.681 324.158 661.365 258 662.985C237.245 663.494 216.718 662.053 196 662.961C189.696 663.237 182.078 660.737 176.044 662.573z"/>
<path style="fill:#478cc3; stroke:none;" d="M547 662L548 663L547 662M657 662L658 663L657 662z"/>
<path style="fill:#212e64; stroke:none;" d="M668 662.468C656.662 663.676 659.959 672.633 659.999 681C660.081 697.999 660 715.001 660 732L660 957L660 1018C659.991 1023.3 656.138 1035.42 663.109 1037.57C671.144 1040.04 682.612 1038 691 1038L753 1038C760.244 1038 776.867 1041.06 782.682 1036.26C787.824 1032.01 781.984 1025.12 782.238 1020C782.803 1008.66 783.707 997.498 783.861 986C783.927 981.035 785.094 974.74 782.721 970.17C778.583 962.198 767.923 957.657 761 952.41C743.149 938.879 722.937 927.565 706.005 912.79C698.194 905.974 701.187 889.59 712.83 887.778C726.085 885.715 737.762 902.62 748 908.637C763.007 917.458 775.541 929.729 790 939.299C797.372 944.178 807.064 947.267 811.625 955.754C814.311 960.751 813 968.532 813 974L813 1016C813 1021.11 810.07 1032.81 814.318 1036.4C817.258 1038.88 822.442 1038 826 1038L853 1038C860.557 1038 870.787 1040.17 877.956 1037.77C885.384 1035.28 882.002 1024.92 882 1019C881.993 1000.59 879.676 981.252 881.094 963C882.037 950.862 894.32 946.281 903 940.313C921.345 927.7 937.949 911.839 957.015 900.348C964.099 896.078 972.895 885.635 981.985 887.983C996.793 891.808 996.12 907.823 985.999 915.529C968.894 928.553 950.775 940.849 933 952.914C925.725 957.851 913.436 964.15 910.564 973C908.713 978.704 910.998 986.07 911 992C911.005 1005.13 909.122 1019.27 909.669 1031.98C909.845 1036.07 913.279 1037.99 917.001 1038.36C944.863 1041.13 974.919 1038 1003 1038C1009.4 1038 1027.49 1041.1 1032.14 1036.26C1035.89 1032.36 1033 1020.15 1033 1015L1033 955L1033 739L1033 684C1033.01 678.687 1036.13 669.065 1032.14 664.707C1028.15 660.351 1014.51 663 1009 663L943 663L755 663C726.672 663 696.045 659.483 668 662.468z"/>
<path style="fill:#478cc3; stroke:none;" d="M1035 662L1036 663L1035 662M168.333 663.667L168.667 664.333L168.333 663.667M656 663L657 664L656 663M1036 663L1037 664L1036 663M548 664L549 665L548 664M655.333 665.667L655.667 666.333L655.333 665.667M1037 665L1038 666L1037 665M655 669L655 675L656 675L655 669M1037 674L1037 1030L1038 1030L1038 778L1038 706L1037 674M548 675L548 868L549 868L549 732L549 693L548 675M655 688L655 866L656 866L656 741L656 705L655 688z"/>
<path style="fill:#555a7e; stroke:none;" d="M840 767.464C812.906 772.22 785.855 789.537 775.588 816C754.539 870.251 802.548 928.356 859 919.561C890.537 914.648 918.045 889.578 922.7 857C929.178 811.661 889.694 758.741 840 767.464M284 827C283.563 851.943 284.795 873.396 301.415 893.957C332.661 932.612 396.102 928.349 422.819 886.911C458.073 832.228 412.231 756.8 346 768.329C326.28 771.761 306.345 786.344 295.758 803C291.221 810.137 289.82 821.453 284 827z"/>
<path style="fill:#478cc3; stroke:none;" d="M358 770.594C322.967 771.919 290.528 799.598 286.133 835C280.705 878.715 318.531 919.808 362 917.896C394.219 916.479 421.999 894.18 430.696 863.001C441.003 826.047 417.569 784.42 381 774.961C373.039 772.901 366.477 770.274 358 770.594M838 771.464C811.897 776.076 788.986 791.615 778.84 817C763.494 855.393 785.576 901.87 824 914.896C835.542 918.808 851.115 918.474 863 916.56C906.083 909.621 931.779 856.615 915.79 817C906.827 794.793 889.851 781.705 868 774.911C858.195 771.863 848.338 769.637 838 771.464z"/>
<path style="fill:#555a7e; stroke:none;" d="M349 794.443C312.129 800.688 300.628 849.038 321.043 875.999C333.828 892.884 354.287 896.289 374 892.532C403.632 886.885 416.774 847.336 405.084 822C395.85 801.987 370.004 790.885 349 794.443M840 794.464C790.793 803.321 782.365 874.709 831 892.031C838.962 894.866 851.808 894.312 860 892.686C866.597 891.376 871.661 887.834 876.985 883.97C917.224 854.766 890.272 785.417 840 794.464z"/>
<path style="fill:#212e64; stroke:none;" d="M351.925 797.493C319.697 802.561 302.349 842.93 319.966 870C330.811 886.664 350.73 893.569 370 890.79C397.736 886.79 413.89 850.77 403.992 826C396.198 806.499 372.441 794.267 351.925 797.493M840 797.598C832.438 799.391 823.057 802.215 817.104 807.39C798.168 823.848 794.889 859.418 813.514 877.471C826.201 889.769 844.028 893.616 861.004 889.696C916.39 876.905 894.947 784.568 840 797.598z"/>
<path style="fill:#478cc3; stroke:none;" d="M548 870L548 909L549 909C549 897.828 552.311 880.274 548 870M655 880L655 888L656 888L655 880M875 1041L875 1042L898.576 1039.86L1006 1042C999.564 1039.3 989.951 1041 983 1041L933 1041C925.647 1041 911.316 1043.7 907.068 1035.7C904.529 1030.92 908 1015.99 908 1010C908 999.355 904.464 982.78 908.499 973C912.328 963.722 922.336 957.863 930 952.127C947.709 938.872 966.746 927.306 983.957 913.402C991.162 907.581 991.872 893.236 980.961 890.449C973.316 888.497 964.106 898.575 958 902.209C938.92 913.566 922.289 929.632 904 942.248C897.711 946.586 885.286 951.555 883.858 960C880.973 977.056 882.528 1000.74 884.17 1018C885.105 1027.83 889.149 1040.23 875 1041M190 1041L190 1042L291 1042L310 1039.35L328 1041.99L409 1040L538 1042L538 1041L452 1041C444.605 1041 426.964 1044.23 421.894 1037.72C418.967 1033.96 420.619 1029.26 420.91 1025C421.572 1015.34 420.676 1005.66 421.536 996C422.375 986.586 418.467 972.161 425.499 964.379C430.626 958.705 438.784 955.266 444.91 950.784C459.132 940.379 473.52 930.678 487.209 919.619C493.369 914.642 508.179 908.027 500.566 898.04C497.893 894.533 492.727 890.473 488 891.362C483.89 892.135 480.557 896.171 477 898.215C465.439 904.859 453.236 913.498 443 922.05C435.109 928.643 426.493 935.492 417.996 941.316C412.298 945.221 403.94 949.372 400.009 955.184C396.1 960.964 398.25 970.387 397.961 977C397.121 996.181 394.132 1018.45 400 1037C382.192 1044.94 358.274 1041.01 339 1041C333.908 1041 321.511 1041.43 319.816 1034.79C318.907 1031.23 321.943 1025.9 321.996 1022C322.191 1007.62 320.834 993.306 321.004 979C321.084 972.269 323.659 964.515 320.991 958.004C318.687 952.381 312.498 949.08 308 945.385C295.889 935.435 282.748 926.68 270 917.444C261.086 910.987 251.937 904.959 243 898.628C238.248 895.262 233.342 890.25 227.001 891.725C202.036 897.528 228.909 918.029 237.285 924.305C250.149 933.943 263.503 943.318 277 952.064C285.053 957.282 294.76 962.659 298.518 972C302.494 981.885 299.387 999.349 299.043 1010C298.837 1016.39 302.551 1032.8 298.476 1037.61C293.094 1043.95 277.441 1041 270 1041L190 1041M668 1041L668 1042L871 1042C859.782 1037.29 840.206 1041 828 1041C822.547 1041 814.422 1042.45 810.488 1037.66C807.073 1033.5 810 1022.26 810 1017C810 999.168 814.247 975.238 809.682 958.043C808.076 951.994 797.903 946.658 793 943.329C777.749 932.976 763.665 920.308 748 910.731C739.825 905.733 720.351 885.048 710.213 892.603C698.072 901.651 710.019 912.794 718 918.344C732.583 928.484 746.452 939.637 761 949.821C768.545 955.103 778.772 960.058 783.811 968.004C789.239 976.563 785.881 988.332 786.018 998C786.135 1006.22 785.023 1015.95 786.325 1024C786.987 1028.09 789.814 1033.65 786.878 1037.43C781.586 1044.25 763.606 1041 756 1041L668 1041M548 910L548 934L549 934L548 910M655 912L655 1036L656 1036L656 950C656 939.104 659.208 922.027 655 912M168 916L169 917L168 916M548 936L548 944L549 944L548 936M548 960L548 1001L549 1001C549 989.304 552.511 970.75 548 960M548 1016L548 1027L549 1027L548 1016M167.333 1031.67L167.667 1032.33L167.333 1031.67M1037.33 1034.67L1037.67 1035.33L1037.33 1034.67M548 1036L549 1037L548 1036M168 1037L169 1038L168 1037M656 1037L657 1038L656 1037M1036 1037L1037 1038L1036 1037M547 1038L548 1039L547 1038M169 1039L170 1040L169 1039M546 1039L547 1040L546 1039M657 1039L658 1040L657 1039M1035 1039L1036 1040L1035 1039M170 1040L171 1041L170 1040M545 1040L546 1041L545 1040M659 1040L660 1041L659 1040M1033 1040L1034 1041L1033 1040M172 1041L173 1042L172 1041M180 1041L180 1042L189 1042L180 1041M542.667 1041.33L543.333 1041.67L542.667 1041.33M661.667 1041.33L662.333 1041.67L661.667 1041.33M1014 1041L1014 1042L1022 1042L1014 1041M1030.67 1041.33L1031.33 1041.67L1030.67 1041.33z"/>
</svg>
